<svg width="70" height="70" viewBox="0 0 70 70" fill="none" xmlns="http://www.w3.org/2000/svg">
<path d="M68.8811 32.2803L43.6017 7.00022C42.8801 6.2786 41.9183 5.88251 40.8928 5.88251C39.8661 5.88251 38.9049 6.27917 38.1833 7.00022L35.8881 9.29597C35.167 10.0165 34.7698 10.9788 34.7698 12.0049C34.7698 13.0304 35.167 14.0252 35.8881 14.7457L50.6358 29.5258H3.78168C1.66917 29.5258 0 31.1796 0 33.2927V36.5383C0 38.6513 1.66917 40.4719 3.78168 40.4719H50.8031L35.8886 55.3345C35.1676 56.0562 34.7704 56.9923 34.7704 58.0184C34.7704 59.0434 35.1676 59.9932 35.8886 60.7143L38.1838 63.0026C38.9055 63.7242 39.8667 64.1175 40.8933 64.1175C41.9188 64.1175 42.8806 63.7191 43.6022 62.9975L68.8817 37.718C69.605 36.9941 70.0028 36.0278 70 35.0006C70.0023 33.9699 69.605 33.003 68.8811 32.2803Z" fill="#1F7898"/>
</svg>
